<svg xmlns="http://www.w3.org/2000/svg" xmlns:xlink="http://www.w3.org/1999/xlink" fill="none" version="1.1" width="21" height="17" viewBox="0 0 21 17"><defs><clipPath id="master_svg0_14_242"><rect x="0" y="0" width="21" height="17" rx="0"/></clipPath></defs><g clip-path="url(#master_svg0_14_242)"><g transform="matrix(1,0,0,-1,0,33.6875)"><g><path d="M10.5,32.84375Q10.9375,32.84375,11.2188,32.56255Q11.5,32.28125,11.5,31.84375L11.5,29.84375L15.25,29.84375Q16.2188,29.81255,16.8438,29.18755Q17.4688,28.56255,17.5,27.59375L17.5,19.09375Q17.4688,18.125,16.8438,17.5Q16.2188,16.875,15.25,16.84375L5.75,16.84375Q4.78125,16.875,4.15625,17.5Q3.53125,18.125,3.5,19.09375L3.5,27.59375Q3.53125,28.56255,4.15625,29.18755Q4.78125,29.81255,5.75,29.84375L9.5,29.84375L9.5,31.84375Q9.5,32.28125,9.78125,32.56255Q10.0625,32.84375,10.5,32.84375ZM7,20.84375Q6.53125,20.8125,6.5,20.34375Q6.53125,19.875,7,19.84375L8,19.84375Q8.46875,19.875,8.5,20.34375Q8.46875,20.8125,8,20.84375L7,20.84375ZM10,20.84375Q9.53125,20.8125,9.5,20.34375Q9.53125,19.875,10,19.84375L11,19.84375Q11.4688,19.875,11.5,20.34375Q11.4688,20.8125,11,20.84375L10,20.84375ZM13,20.84375Q12.5312,20.8125,12.5,20.34375Q12.5312,19.875,13,19.84375L14,19.84375Q14.4688,19.875,14.5,20.34375Q14.4688,20.8125,14,20.84375L13,20.84375ZM8.75,24.84375Q8.71875,25.5625,8.125,25.9375Q7.5,26.25,6.875,25.9375Q6.28125,25.5625,6.25,24.84375Q6.28125,24.125,6.875,23.75Q7.5,23.4375,8.125,23.75Q8.71875,24.125,8.75,24.84375ZM13.5,23.59375Q14.2188,23.625,14.5938,24.21875Q14.9062,24.84375,14.5938,25.46875Q14.2188,26.0625,13.5,26.09375Q12.7812,26.0625,12.4062,25.46875Q12.0938,24.84375,12.4062,24.21875Q12.7812,23.625,13.5,23.59375ZM2,25.84375L2.5,25.84375L2,25.84375L2.5,25.84375L2.5,19.84375L2,19.84375Q1.375,19.875,0.9375,20.28125Q0.53125,20.71875,0.5,21.34375L0.5,24.34375Q0.53125,24.96875,0.9375,25.40625Q1.375,25.8125,2,25.84375ZM19,25.84375Q19.625,25.8125,20.0625,25.40625Q20.4688,24.96875,20.5,24.34375L20.5,21.34375Q20.4688,20.71875,20.0625,20.28125Q19.625,19.875,19,19.84375L18.5,19.84375L18.5,25.84375L19,25.84375Z" fill="#000000" fill-opacity="1" style="mix-blend-mode:passthrough"/></g></g><rect x="0.5" y="0.5" width="20" height="16" rx="0" fill-opacity="0" stroke-opacity="1" stroke="#000000" fill="none" stroke-width="1"/></g></svg>