<svg xmlns="http://www.w3.org/2000/svg" xmlns:xlink="http://www.w3.org/1999/xlink" fill="none" version="1.1" width="20" height="16" viewBox="0 0 20 16"><defs><clipPath id="master_svg0_14_242"><rect x="0" y="0" width="20" height="16" rx="0"/></clipPath></defs><g clip-path="url(#master_svg0_14_242)"><g transform="matrix(1,0,0,-1,0,32.6875)"><g><path d="M10,32.34375Q10.4375,32.34375,10.7188,32.06255Q11,31.78125,11,31.34375L11,29.34375L14.75,29.34375Q15.7188,29.31255,16.3438,28.68755Q16.9688,28.06255,17,27.09375L17,18.59375Q16.9688,17.625,16.3438,17Q15.7188,16.375,14.75,16.34375L5.25,16.34375Q4.28125,16.375,3.65625,17Q3.03125,17.625,3,18.59375L3,27.09375Q3.03125,28.06255,3.65625,28.68755Q4.28125,29.31255,5.25,29.34375L9,29.34375L9,31.34375Q9,31.78125,9.28125,32.06255Q9.5625,32.34375,10,32.34375ZM6.5,20.34375Q6.03125,20.3125,6,19.84375Q6.03125,19.375,6.5,19.34375L7.5,19.34375Q7.96875,19.375,8,19.84375Q7.96875,20.3125,7.5,20.34375L6.5,20.34375ZM9.5,20.34375Q9.03125,20.3125,9,19.84375Q9.03125,19.375,9.5,19.34375L10.5,19.34375Q10.9688,19.375,11,19.84375Q10.9688,20.3125,10.5,20.34375L9.5,20.34375ZM12.5,20.34375Q12.0312,20.3125,12,19.84375Q12.0312,19.375,12.5,19.34375L13.5,19.34375Q13.9688,19.375,14,19.84375Q13.9688,20.3125,13.5,20.34375L12.5,20.34375ZM8.25,24.34375Q8.21875,25.0625,7.625,25.4375Q7,25.75,6.375,25.4375Q5.78125,25.0625,5.75,24.34375Q5.78125,23.625,6.375,23.25Q7,22.9375,7.625,23.25Q8.21875,23.625,8.25,24.34375ZM13,23.09375Q13.7188,23.125,14.0938,23.71875Q14.4062,24.34375,14.0938,24.96875Q13.7188,25.5625,13,25.59375Q12.2812,25.5625,11.9062,24.96875Q11.5938,24.34375,11.9062,23.71875Q12.2812,23.125,13,23.09375ZM1.5,25.34375L2,25.34375L1.5,25.34375L2,25.34375L2,19.34375L1.5,19.34375Q0.875,19.375,0.4375,19.78125Q0.03125,20.21875,0,20.84375L0,23.84375Q0.03125,24.46875,0.4375,24.90625Q0.875,25.3125,1.5,25.34375ZM18.5,25.34375Q19.125,25.3125,19.5625,24.90625Q19.9688,24.46875,20,23.84375L20,20.84375Q19.9688,20.21875,19.5625,19.78125Q19.125,19.375,18.5,19.34375L18,19.34375L18,25.34375L18.5,25.34375Z" fill="#FFFFFF" fill-opacity="1" style="mix-blend-mode:passthrough"/></g></g></g></svg>