<?xml version="1.0" standalone="no"?>
<!DOCTYPE svg PUBLIC "-//W3C//DTD SVG 20010904//EN"
 "http://www.w3.org/TR/2001/REC-SVG-20010904/DTD/svg10.dtd">
<svg version="1.0" xmlns="http://www.w3.org/2000/svg"
 width="1024.000000pt" height="1024.000000pt" viewBox="0 0 1024.000000 1024.000000"
 preserveAspectRatio="xMidYMid meet">
<metadata>
Created by potrace 1.11, written by Peter Selinger 2001-2013
</metadata>
<g transform="translate(0.000000,1024.000000) scale(0.100000,-0.100000)"
fill="#000000" stroke="none">
<path d="M365 10226 c-72 -18 -113 -38 -173 -84 -93 -70 -157 -169 -181 -280
-8 -39 -11 -1294 -11 -4745 0 -4184 2 -4699 15 -4752 42 -159 154 -278 316
-337 l64 -23 4670 -3 c3173 -2 4695 1 4749 8 218 28 388 198 416 416 7 54 10
1576 8 4749 l-3 4670 -23 64 c-59 162 -178 274 -337 316 -53 13 -567 15 -4760
14 -3732 -1 -4710 -3 -4750 -13z m6306 -2236 c1094 -109 2037 -831 2422 -1855
126 -336 180 -640 180 -1010 0 -239 -15 -388 -59 -598 -245 -1160 -1183 -2055
-2355 -2247 -524 -86 -1067 -22 -1564 185 -107 44 -315 149 -346 174 l-22 18
147 260 c81 144 153 268 159 276 10 13 23 9 91 -29 437 -244 966 -333 1462
-244 959 171 1702 949 1829 1914 17 134 20 421 5 546 -18 148 -50 290 -100
443 -290 883 -1104 1496 -2035 1534 -389 16 -756 -67 -1113 -252 -116 -60
-148 -73 -158 -63 -6 7 -80 130 -163 273 l-152 259 23 18 c43 33 362 187 473
228 211 78 451 137 645 159 52 6 109 13 125 15 70 8 411 5 506 -4z m-2171
-1399 l595 -1191 752 0 753 0 0 -280 0 -280 -928 0 -927 0 -360 720 c-198 396
-362 716 -366 712 -3 -4 -296 -949 -649 -2100 -354 -1150 -646 -2092 -649
-2092 -3 0 -271 621 -596 1380 l-590 1380 -307 0 -308 0 0 280 0 280 493 0
493 0 359 -837 c197 -461 362 -842 366 -847 4 -4 16 20 27 55 193 642 1237
4017 1241 4014 3 -2 274 -539 601 -1194z m2218 101 c488 -106 888 -415 1111
-859 216 -428 224 -943 20 -1381 -193 -416 -572 -743 -1006 -866 -159 -46
-266 -60 -443 -60 -195 0 -308 17 -487 75 -144 47 -349 148 -347 171 1 14 272
504 296 534 6 9 35 -2 102 -36 275 -139 588 -140 866 0 131 66 275 192 357
311 85 124 148 298 162 454 45 463 -262 898 -716 1016 -225 58 -512 20 -705
-95 l-57 -35 -162 276 c-153 262 -161 277 -143 290 45 33 247 125 346 158 181
60 292 75 518 71 146 -3 218 -9 288 -24z"/>
</g>
</svg>
